# xmcd CD database file
#
# Track frame offsets:
#	150
#	16471
#	34424
#	51015
#	66201
#	82385
#	99973
#	115786
#	132746
#	149231
#	164766
#	180875
#	198998
#
# Disc length: 2909 seconds
#
# Revision: 0
# Processed by: cddbd v1.5.2PL0 Copyright (c) Steve Scherf et al.
# Submitted via: CDex 1.51
#
DISCID=c30b5b0d
DTITLE=Relax Music Voyage - Serenity
DYEAR=2011
DGENRE=New Age
TTITLE0=Lake
TTITLE1=Underwater
TTITLE2=Sunlight
TTITLE3=Serenity
TTITLE4=Breath
TTITLE5=Letter
TTITLE6=Rooms
TTITLE7=Night
TTITLE8=Fly
TTITLE9=Serrender
TTITLE10=Time
TTITLE11=Power Dawn
TTITLE12=Grassland
EXTD=YEAR: 2011
EXTT0=
EXTT1=
EXTT2=
EXTT3=
EXTT4=
EXTT5=
EXTT6=
EXTT7=
EXTT8=
EXTT9=
EXTT10=
EXTT11=
EXTT12=
PLAYORDER=
